<?xml version="1.0" encoding="UTF-8"?>
<svg xmlns="http://www.w3.org/2000/svg" xmlns:xlink="http://www.w3.org/1999/xlink" width="14pt" height="14pt" viewBox="0 0 14 14" version="1.1">
<g id="surface1">
<path style="fill-rule:evenodd;fill:rgb(0%,0%,0%);fill-opacity:1;stroke-width:1;stroke-linecap:butt;stroke-linejoin:miter;stroke:rgb(0%,0%,0%);stroke-opacity:1;stroke-miterlimit:4;" d="M 332.728795 205.496652 L 119.280134 783.063616 L 98.772321 1261.858259 L 146.065848 1317.940848 L 1357.282366 1313.337054 L 1420.061384 1221.261161 L 1413.364955 814.453125 L 1173.13058 194.196429 Z M 332.728795 205.496652 " transform="matrix(0.00933333,0,0,0.00933333,0,0)"/>
<path style=" stroke:none;fill-rule:evenodd;fill:rgb(92.54902%,92.54902%,92.54902%);fill-opacity:1;" d="M 9.417969 9.847656 C 9.417969 10.042969 9.347656 10.207031 9.210938 10.347656 C 9.070312 10.488281 8.902344 10.558594 8.707031 10.558594 C 8.511719 10.558594 8.34375 10.488281 8.203125 10.347656 C 8.066406 10.207031 7.996094 10.042969 7.996094 9.847656 C 7.996094 9.648438 8.066406 9.484375 8.203125 9.34375 C 8.34375 9.203125 8.511719 9.132812 8.707031 9.132812 C 8.902344 9.132812 9.070312 9.203125 9.210938 9.34375 C 9.347656 9.484375 9.417969 9.648438 9.417969 9.847656 Z M 11.695312 9.847656 C 11.695312 10.042969 11.625 10.207031 11.488281 10.347656 C 11.347656 10.488281 11.179688 10.558594 10.984375 10.558594 C 10.789062 10.558594 10.621094 10.488281 10.480469 10.347656 C 10.34375 10.207031 10.273438 10.042969 10.273438 9.847656 C 10.273438 9.648438 10.34375 9.484375 10.480469 9.34375 C 10.621094 9.203125 10.789062 9.132812 10.984375 9.132812 C 11.179688 9.132812 11.347656 9.203125 11.488281 9.34375 C 11.625 9.484375 11.695312 9.648438 11.695312 9.847656 Z M 12.691406 11.269531 L 12.691406 8.421875 C 12.691406 8.347656 12.664062 8.277344 12.605469 8.222656 C 12.550781 8.167969 12.484375 8.136719 12.40625 8.136719 L 1.59375 8.136719 C 1.515625 8.136719 1.449219 8.167969 1.394531 8.222656 C 1.335938 8.277344 1.308594 8.347656 1.308594 8.421875 L 1.308594 11.269531 C 1.308594 11.347656 1.335938 11.414062 1.394531 11.46875 C 1.449219 11.523438 1.515625 11.554688 1.59375 11.554688 L 12.40625 11.554688 C 12.484375 11.554688 12.550781 11.523438 12.605469 11.46875 C 12.664062 11.414062 12.691406 11.347656 12.691406 11.269531 Z M 1.753906 7 L 12.246094 7 L 10.851562 2.714844 C 10.828125 2.636719 10.78125 2.574219 10.707031 2.523438 C 10.636719 2.472656 10.558594 2.445312 10.476562 2.445312 L 3.523438 2.445312 C 3.441406 2.445312 3.363281 2.472656 3.292969 2.523438 C 3.21875 2.574219 3.171875 2.636719 3.148438 2.714844 Z M 13.828125 8.421875 L 13.828125 11.269531 C 13.828125 11.660156 13.691406 11.996094 13.410156 12.273438 C 13.132812 12.550781 12.796875 12.691406 12.40625 12.691406 L 1.59375 12.691406 C 1.203125 12.691406 0.867188 12.550781 0.589844 12.273438 C 0.308594 11.996094 0.171875 11.660156 0.171875 11.269531 L 0.171875 8.421875 C 0.171875 8.273438 0.21875 8.050781 0.3125 7.757812 L 2.0625 2.367188 C 2.164062 2.050781 2.351562 1.796875 2.625 1.601562 C 2.898438 1.40625 3.195312 1.308594 3.523438 1.308594 L 10.476562 1.308594 C 10.804688 1.308594 11.101562 1.40625 11.375 1.601562 C 11.648438 1.796875 11.835938 2.050781 11.9375 2.367188 L 13.6875 7.757812 C 13.78125 8.050781 13.828125 8.273438 13.828125 8.421875 Z M 13.828125 8.421875 "/>
</g>
</svg>
