<?xml version="1.0" encoding="UTF-8"?>
<svg xmlns="http://www.w3.org/2000/svg" xmlns:xlink="http://www.w3.org/1999/xlink" width="14pt" height="14pt" viewBox="0 0 14 14" version="1.1">
<g id="surface1">
<path style=" stroke:none;fill-rule:nonzero;fill:rgb(0%,0%,0%);fill-opacity:1;" d="M 9.277344 10.871094 C 9.277344 10.933594 9.253906 10.988281 9.210938 11.03125 C 9.164062 11.078125 9.113281 11.101562 9.050781 11.101562 L 2.214844 11.101562 C 2.179688 11.101562 2.144531 11.097656 2.121094 11.085938 C 2.09375 11.078125 2.074219 11.058594 2.054688 11.035156 C 2.039062 11.011719 2.027344 10.992188 2.015625 10.980469 C 2.007812 10.964844 2 10.9375 1.996094 10.898438 C 1.992188 10.855469 1.988281 10.828125 1.988281 10.816406 L 1.988281 6.542969 L 0.621094 6.542969 C 0.496094 6.542969 0.390625 6.5 0.300781 6.410156 C 0.210938 6.320312 0.164062 6.210938 0.164062 6.089844 C 0.164062 5.976562 0.203125 5.878906 0.273438 5.796875 L 2.550781 3.0625 C 2.640625 2.957031 2.757812 2.90625 2.898438 2.90625 C 3.042969 2.90625 3.15625 2.957031 3.25 3.0625 L 5.527344 5.796875 C 5.597656 5.878906 5.632812 5.976562 5.632812 6.089844 C 5.632812 6.210938 5.589844 6.320312 5.496094 6.410156 C 5.40625 6.5 5.300781 6.542969 5.175781 6.542969 L 3.8125 6.542969 L 3.8125 9.277344 L 7.910156 9.277344 C 7.988281 9.277344 8.046875 9.304688 8.089844 9.355469 L 9.226562 10.722656 C 9.261719 10.777344 9.277344 10.824219 9.277344 10.871094 Z M 13.835938 7.910156 C 13.835938 8.023438 13.796875 8.121094 13.726562 8.203125 L 11.449219 10.9375 C 11.355469 11.046875 11.238281 11.101562 11.101562 11.101562 C 10.964844 11.101562 10.847656 11.046875 10.75 10.9375 L 8.472656 8.203125 C 8.402344 8.121094 8.367188 8.023438 8.367188 7.910156 C 8.367188 7.789062 8.410156 7.679688 8.503906 7.589844 C 8.59375 7.5 8.699219 7.457031 8.824219 7.457031 L 10.1875 7.457031 L 10.1875 4.722656 L 6.089844 4.722656 C 6.011719 4.722656 5.953125 4.695312 5.910156 4.636719 L 4.773438 3.269531 C 4.738281 3.226562 4.722656 3.179688 4.722656 3.128906 C 4.722656 3.066406 4.746094 3.011719 4.789062 2.96875 C 4.835938 2.921875 4.886719 2.898438 4.949219 2.898438 L 11.785156 2.898438 C 11.820312 2.898438 11.855469 2.902344 11.878906 2.914062 C 11.90625 2.921875 11.925781 2.941406 11.945312 2.964844 C 11.960938 2.988281 11.972656 3.007812 11.984375 3.019531 C 11.992188 3.035156 12 3.0625 12.003906 3.101562 C 12.007812 3.144531 12.011719 3.171875 12.011719 3.183594 L 12.011719 7.457031 L 13.378906 7.457031 C 13.503906 7.457031 13.609375 7.5 13.699219 7.589844 C 13.789062 7.679688 13.835938 7.789062 13.835938 7.910156 Z M 13.835938 7.910156 "/>
</g>
</svg>
