<?xml version="1.0" encoding="UTF-8"?>
<svg xmlns="http://www.w3.org/2000/svg" xmlns:xlink="http://www.w3.org/1999/xlink" width="14pt" height="14pt" viewBox="0 0 14 14" version="1.1">
<g id="surface1">
<path style=" stroke:none;fill-rule:nonzero;fill:rgb(0%,0%,0%);fill-opacity:1;" d="M 12.199219 10.199219 C 12.199219 9.976562 12.121094 9.789062 11.96875 9.632812 L 10.234375 7.898438 C 10.078125 7.746094 9.890625 7.667969 9.667969 7.667969 C 9.433594 7.667969 9.234375 7.753906 9.066406 7.933594 C 9.082031 7.949219 9.136719 8 9.226562 8.085938 C 9.3125 8.171875 9.375 8.234375 9.402344 8.265625 C 9.433594 8.300781 9.476562 8.351562 9.527344 8.425781 C 9.582031 8.496094 9.617188 8.566406 9.636719 8.636719 C 9.65625 8.707031 9.667969 8.785156 9.667969 8.867188 C 9.667969 9.089844 9.589844 9.277344 9.433594 9.433594 C 9.277344 9.589844 9.089844 9.667969 8.867188 9.667969 C 8.785156 9.667969 8.707031 9.65625 8.636719 9.636719 C 8.566406 9.617188 8.496094 9.582031 8.425781 9.527344 C 8.351562 9.476562 8.300781 9.433594 8.265625 9.402344 C 8.234375 9.375 8.171875 9.3125 8.085938 9.226562 C 8 9.136719 7.949219 9.082031 7.933594 9.066406 C 7.75 9.238281 7.660156 9.441406 7.660156 9.675781 C 7.660156 9.898438 7.734375 10.085938 7.890625 10.242188 L 9.609375 11.96875 C 9.757812 12.117188 9.949219 12.191406 10.175781 12.191406 C 10.398438 12.191406 10.585938 12.121094 10.742188 11.976562 L 11.96875 10.757812 C 12.121094 10.601562 12.199219 10.417969 12.199219 10.199219 Z M 6.339844 4.324219 C 6.339844 4.101562 6.265625 3.914062 6.109375 3.757812 L 4.390625 2.03125 C 4.234375 1.878906 4.046875 1.800781 3.824219 1.800781 C 3.609375 1.800781 3.417969 1.875 3.257812 2.023438 L 2.03125 3.242188 C 1.878906 3.398438 1.800781 3.582031 1.800781 3.800781 C 1.800781 4.023438 1.878906 4.210938 2.03125 4.367188 L 3.765625 6.101562 C 3.917969 6.25 4.105469 6.324219 4.332031 6.324219 C 4.566406 6.324219 4.765625 6.238281 4.933594 6.066406 C 4.917969 6.050781 4.863281 6 4.773438 5.914062 C 4.6875 5.828125 4.625 5.765625 4.597656 5.734375 C 4.566406 5.699219 4.523438 5.648438 4.472656 5.574219 C 4.417969 5.503906 4.382812 5.433594 4.363281 5.363281 C 4.34375 5.292969 4.332031 5.214844 4.332031 5.132812 C 4.332031 4.910156 4.410156 4.722656 4.566406 4.566406 C 4.722656 4.410156 4.910156 4.332031 5.132812 4.332031 C 5.214844 4.332031 5.292969 4.34375 5.363281 4.363281 C 5.433594 4.382812 5.503906 4.417969 5.574219 4.472656 C 5.648438 4.523438 5.699219 4.566406 5.734375 4.597656 C 5.765625 4.625 5.828125 4.6875 5.914062 4.773438 C 6 4.863281 6.050781 4.917969 6.066406 4.933594 C 6.25 4.761719 6.339844 4.558594 6.339844 4.324219 Z M 13.800781 10.199219 C 13.800781 10.867188 13.5625 11.429688 13.09375 11.890625 L 11.867188 13.109375 C 11.40625 13.570312 10.84375 13.800781 10.175781 13.800781 C 9.503906 13.800781 8.9375 13.5625 8.476562 13.09375 L 6.757812 11.367188 C 6.296875 10.90625 6.066406 10.34375 6.066406 9.675781 C 6.066406 8.992188 6.3125 8.410156 6.800781 7.933594 L 6.066406 7.199219 C 5.589844 7.6875 5.011719 7.933594 4.332031 7.933594 C 3.667969 7.933594 3.101562 7.699219 2.632812 7.234375 L 0.898438 5.5 C 0.433594 5.035156 0.199219 4.464844 0.199219 3.800781 C 0.199219 3.132812 0.4375 2.570312 0.90625 2.109375 L 2.132812 0.890625 C 2.59375 0.429688 3.15625 0.199219 3.824219 0.199219 C 4.496094 0.199219 5.0625 0.4375 5.523438 0.90625 L 7.242188 2.632812 C 7.703125 3.09375 7.933594 3.65625 7.933594 4.324219 C 7.933594 5.007812 7.6875 5.589844 7.199219 6.066406 L 7.933594 6.800781 C 8.410156 6.3125 8.988281 6.066406 9.667969 6.066406 C 10.332031 6.066406 10.898438 6.300781 11.367188 6.765625 L 13.101562 8.5 C 13.566406 8.964844 13.800781 9.535156 13.800781 10.199219 Z M 13.800781 10.199219 "/>
</g>
</svg>
