<?xml version="1.0" encoding="UTF-8"?>
<svg xmlns="http://www.w3.org/2000/svg" xmlns:xlink="http://www.w3.org/1999/xlink" width="14pt" height="14pt" viewBox="0 0 14 14" version="1.1">
<g id="surface1">
<path style=" stroke:none;fill-rule:nonzero;fill:rgb(0%,0%,0%);fill-opacity:1;" d="M 12.960938 5.007812 C 13.234375 5.007812 13.46875 5.105469 13.664062 5.300781 C 13.855469 5.492188 13.953125 5.726562 13.953125 6 C 13.953125 6.277344 13.855469 6.511719 13.664062 6.703125 C 13.46875 6.898438 13.234375 6.996094 12.960938 6.996094 L 12.960938 9.976562 C 12.960938 10.246094 12.863281 10.476562 12.664062 10.675781 C 12.46875 10.871094 12.234375 10.96875 11.96875 10.96875 C 9.808594 9.171875 7.707031 8.191406 5.664062 8.019531 C 5.363281 8.117188 5.128906 8.289062 4.957031 8.53125 C 4.789062 8.773438 4.707031 9.035156 4.71875 9.3125 C 4.835938 10.929688 5.449219 11.886719 5.140625 12.839844 C 4.714844 12.96875 4.277344 13 3.832031 12.929688 C 3.386719 12.859375 3.046875 12.714844 2.808594 12.496094 C 2.773438 12.378906 2.695312 12.152344 2.582031 11.820312 C 2.464844 11.484375 2.382812 11.242188 2.332031 11.085938 C 2.28125 10.929688 2.222656 10.699219 2.152344 10.394531 C 2.082031 10.089844 2.042969 9.828125 2.035156 9.609375 C 2.027344 9.394531 2.039062 9.136719 2.0625 8.847656 C 2.089844 8.554688 2.148438 8.269531 2.234375 7.988281 L 1.289062 7.988281 C 0.945312 7.988281 0.652344 7.867188 0.410156 7.625 C 0.167969 7.378906 0.046875 7.089844 0.046875 6.746094 L 0.046875 5.257812 C 0.046875 4.914062 0.167969 4.621094 0.410156 4.378906 C 0.652344 4.136719 0.945312 4.015625 1.289062 4.015625 L 5.011719 4.015625 C 7.265625 4.015625 9.582031 3.023438 11.96875 1.035156 C 12.234375 1.035156 12.46875 1.132812 12.664062 1.328125 C 12.863281 1.527344 12.960938 1.757812 12.960938 2.027344 Z M 11.96875 9.695312 L 11.96875 2.292969 C 9.929688 3.855469 7.941406 4.742188 6.007812 4.953125 L 6.007812 7.050781 C 7.957031 7.265625 9.945312 8.148438 11.96875 9.695312 Z M 11.96875 9.695312 "/>
</g>
</svg>
