<?xml version="1.0" encoding="UTF-8"?>
<svg xmlns="http://www.w3.org/2000/svg" xmlns:xlink="http://www.w3.org/1999/xlink" width="14pt" height="14pt" viewBox="0 0 14 14" version="1.1">
<g id="surface1">
<path style=" stroke:none;fill-rule:nonzero;fill:rgb(0%,0%,0%);fill-opacity:1;" d="M 8.105469 3.964844 L 8.105469 7.828125 C 8.105469 7.910156 8.078125 7.972656 8.027344 8.027344 C 7.972656 8.078125 7.910156 8.105469 7.828125 8.105469 L 5.070312 8.105469 C 4.988281 8.105469 4.921875 8.078125 4.871094 8.027344 C 4.816406 7.972656 4.792969 7.910156 4.792969 7.828125 L 4.792969 7.277344 C 4.792969 7.195312 4.816406 7.128906 4.871094 7.078125 C 4.921875 7.027344 4.988281 7 5.070312 7 L 7 7 L 7 3.964844 C 7 3.882812 7.027344 3.816406 7.078125 3.765625 C 7.128906 3.714844 7.195312 3.6875 7.277344 3.6875 L 7.828125 3.6875 C 7.910156 3.6875 7.972656 3.714844 8.027344 3.765625 C 8.078125 3.816406 8.105469 3.882812 8.105469 3.964844 Z M 11.691406 7 C 11.691406 6.148438 11.480469 5.363281 11.0625 4.644531 C 10.640625 3.925781 10.074219 3.359375 9.355469 2.9375 C 8.636719 2.519531 7.851562 2.308594 7 2.308594 C 6.148438 2.308594 5.363281 2.519531 4.644531 2.9375 C 3.925781 3.359375 3.359375 3.925781 2.9375 4.644531 C 2.519531 5.363281 2.308594 6.148438 2.308594 7 C 2.308594 7.851562 2.519531 8.636719 2.9375 9.355469 C 3.359375 10.074219 3.925781 10.640625 4.644531 11.0625 C 5.363281 11.480469 6.148438 11.691406 7 11.691406 C 7.851562 11.691406 8.636719 11.480469 9.355469 11.0625 C 10.074219 10.640625 10.640625 10.074219 11.0625 9.355469 C 11.480469 8.636719 11.691406 7.851562 11.691406 7 Z M 13.621094 7 C 13.621094 8.203125 13.328125 9.308594 12.734375 10.324219 C 12.140625 11.339844 11.339844 12.140625 10.324219 12.734375 C 9.308594 13.328125 8.203125 13.621094 7 13.621094 C 5.796875 13.621094 4.691406 13.328125 3.675781 12.734375 C 2.660156 12.140625 1.859375 11.339844 1.265625 10.324219 C 0.671875 9.308594 0.378906 8.203125 0.378906 7 C 0.378906 5.796875 0.671875 4.691406 1.265625 3.675781 C 1.859375 2.660156 2.660156 1.859375 3.675781 1.265625 C 4.691406 0.671875 5.796875 0.378906 7 0.378906 C 8.203125 0.378906 9.308594 0.671875 10.324219 1.265625 C 11.339844 1.859375 12.140625 2.660156 12.734375 3.675781 C 13.328125 4.691406 13.621094 5.796875 13.621094 7 Z M 13.621094 7 "/>
</g>
</svg>
