<?xml version="1.0" encoding="UTF-8"?>
<svg xmlns="http://www.w3.org/2000/svg" xmlns:xlink="http://www.w3.org/1999/xlink" width="14pt" height="14pt" viewBox="0 0 14 14" version="1.1">
<g id="surface1">
<path style=" stroke:none;fill-rule:nonzero;fill:rgb(0%,0%,0%);fill-opacity:1;" d="M 8.175781 11.03125 L 7.8125 11.390625 C 7.765625 11.441406 7.707031 11.464844 7.632812 11.464844 C 7.5625 11.464844 7.503906 11.441406 7.453125 11.390625 L 2.765625 6.703125 C 2.714844 6.652344 2.691406 6.59375 2.691406 6.523438 C 2.691406 6.449219 2.714844 6.390625 2.765625 6.34375 L 3.125 5.980469 C 3.175781 5.933594 3.234375 5.90625 3.304688 5.90625 C 3.378906 5.90625 3.4375 5.933594 3.484375 5.980469 L 8.175781 10.671875 C 8.222656 10.71875 8.25 10.78125 8.25 10.851562 C 8.25 10.921875 8.222656 10.980469 8.175781 11.03125 Z M 9.257812 9.949219 L 8.898438 10.308594 C 8.847656 10.359375 8.789062 10.382812 8.714844 10.382812 C 8.644531 10.382812 8.585938 10.359375 8.535156 10.308594 L 3.847656 5.621094 C 3.796875 5.570312 3.773438 5.511719 3.773438 5.441406 C 3.773438 5.367188 3.796875 5.308594 3.847656 5.261719 L 4.207031 4.898438 C 4.257812 4.851562 4.316406 4.824219 4.386719 4.824219 C 4.460938 4.824219 4.519531 4.851562 4.566406 4.898438 L 9.257812 9.589844 C 9.304688 9.636719 9.332031 9.695312 9.332031 9.769531 C 9.332031 9.839844 9.304688 9.898438 9.257812 9.949219 Z M 10.339844 8.867188 L 9.980469 9.226562 C 9.929688 9.277344 9.871094 9.300781 9.796875 9.300781 C 9.726562 9.300781 9.667969 9.277344 9.617188 9.226562 L 4.929688 4.539062 C 4.878906 4.488281 4.855469 4.429688 4.855469 4.359375 C 4.855469 4.285156 4.878906 4.226562 4.929688 4.179688 L 5.289062 3.816406 C 5.339844 3.769531 5.398438 3.742188 5.46875 3.742188 C 5.542969 3.742188 5.601562 3.769531 5.648438 3.816406 L 10.339844 8.507812 C 10.386719 8.554688 10.414062 8.613281 10.414062 8.6875 C 10.414062 8.757812 10.386719 8.816406 10.339844 8.867188 Z M 11.421875 7.785156 L 11.0625 8.144531 C 11.011719 8.195312 10.953125 8.21875 10.878906 8.21875 C 10.808594 8.21875 10.75 8.195312 10.699219 8.144531 L 6.011719 3.457031 C 5.960938 3.40625 5.9375 3.347656 5.9375 3.277344 C 5.9375 3.203125 5.960938 3.144531 6.011719 3.097656 L 6.371094 2.734375 C 6.421875 2.6875 6.480469 2.660156 6.550781 2.660156 C 6.625 2.660156 6.683594 2.6875 6.730469 2.734375 L 11.421875 7.425781 C 11.46875 7.472656 11.496094 7.53125 11.496094 7.605469 C 11.496094 7.675781 11.46875 7.734375 11.421875 7.785156 Z M 11.421875 7.785156 "/>
<path style=" stroke:none;fill-rule:nonzero;fill:rgb(0%,0%,0%);fill-opacity:1;" d="M 13.710938 4.878906 L 9.53125 4.878906 C 9.460938 4.878906 9.402344 4.851562 9.351562 4.804688 C 9.304688 4.753906 9.28125 4.695312 9.28125 4.625 L 9.277344 0.445312 C 9.277344 0.375 9.300781 0.3125 9.351562 0.261719 C 9.402344 0.214844 9.460938 0.1875 9.53125 0.1875 L 10.464844 0.191406 C 10.535156 0.191406 10.597656 0.214844 10.644531 0.265625 C 10.695312 0.3125 10.71875 0.375 10.71875 0.445312 L 10.71875 3.4375 L 13.710938 3.4375 C 13.785156 3.4375 13.84375 3.460938 13.890625 3.511719 C 13.941406 3.558594 13.964844 3.621094 13.964844 3.691406 L 13.96875 4.625 C 13.96875 4.695312 13.945312 4.753906 13.894531 4.804688 C 13.84375 4.855469 13.785156 4.878906 13.710938 4.878906 Z M 13.710938 4.878906 "/>
<path style=" stroke:none;fill-rule:nonzero;fill:rgb(0%,0%,0%);fill-opacity:1;" d="M 4.925781 13.667969 L 4.921875 9.488281 C 4.921875 9.417969 4.898438 9.355469 4.847656 9.308594 C 4.800781 9.257812 4.738281 9.234375 4.667969 9.234375 L 0.488281 9.230469 C 0.417969 9.230469 0.355469 9.257812 0.308594 9.308594 C 0.257812 9.355469 0.234375 9.417969 0.234375 9.488281 L 0.234375 10.421875 C 0.234375 10.492188 0.257812 10.554688 0.308594 10.601562 C 0.355469 10.652344 0.417969 10.675781 0.488281 10.675781 L 3.480469 10.675781 L 3.480469 13.667969 C 3.480469 13.738281 3.507812 13.800781 3.554688 13.847656 C 3.605469 13.898438 3.664062 13.921875 3.734375 13.921875 L 4.667969 13.925781 C 4.738281 13.925781 4.800781 13.898438 4.847656 13.847656 C 4.898438 13.800781 4.925781 13.738281 4.925781 13.667969 Z M 4.925781 13.667969 "/>
</g>
</svg>
