<?xml version="1.0" encoding="UTF-8"?>
<svg xmlns="http://www.w3.org/2000/svg" xmlns:xlink="http://www.w3.org/1999/xlink" width="14pt" height="14pt" viewBox="0 0 14 14" version="1.1">
<g id="surface1">
<path style=" stroke:none;fill-rule:nonzero;fill:rgb(0%,0%,0%);fill-opacity:1;" d="M 7.992188 12.09375 L 12.957031 12.09375 L 12.957031 10.964844 L 7.992188 10.964844 Z M 5.015625 7.566406 L 12.957031 7.566406 L 12.957031 6.433594 L 5.015625 6.433594 Z M 9.980469 3.035156 L 12.957031 3.035156 L 12.957031 1.90625 L 9.980469 1.90625 Z M 13.953125 10.398438 L 13.953125 12.660156 C 13.953125 12.816406 13.902344 12.949219 13.804688 13.058594 C 13.707031 13.171875 13.589844 13.226562 13.457031 13.226562 L 0.542969 13.226562 C 0.410156 13.226562 0.292969 13.171875 0.195312 13.058594 C 0.0976562 12.949219 0.046875 12.816406 0.046875 12.660156 L 0.046875 10.398438 C 0.046875 10.242188 0.0976562 10.109375 0.195312 10 C 0.292969 9.886719 0.410156 9.832031 0.542969 9.832031 L 13.457031 9.832031 C 13.589844 9.832031 13.707031 9.886719 13.804688 10 C 13.902344 10.109375 13.953125 10.242188 13.953125 10.398438 Z M 13.953125 5.867188 L 13.953125 8.132812 C 13.953125 8.285156 13.902344 8.417969 13.804688 8.53125 C 13.707031 8.640625 13.589844 8.699219 13.457031 8.699219 L 0.542969 8.699219 C 0.410156 8.699219 0.292969 8.640625 0.195312 8.53125 C 0.0976562 8.417969 0.046875 8.285156 0.046875 8.132812 L 0.046875 5.867188 C 0.046875 5.714844 0.0976562 5.582031 0.195312 5.46875 C 0.292969 5.359375 0.410156 5.300781 0.542969 5.300781 L 13.457031 5.300781 C 13.589844 5.300781 13.707031 5.359375 13.804688 5.46875 C 13.902344 5.582031 13.953125 5.714844 13.953125 5.867188 Z M 13.953125 1.339844 L 13.953125 3.601562 C 13.953125 3.757812 13.902344 3.890625 13.804688 4 C 13.707031 4.113281 13.589844 4.167969 13.457031 4.167969 L 0.542969 4.167969 C 0.410156 4.167969 0.292969 4.113281 0.195312 4 C 0.0976562 3.890625 0.046875 3.757812 0.046875 3.601562 L 0.046875 1.339844 C 0.046875 1.183594 0.0976562 1.050781 0.195312 0.941406 C 0.292969 0.828125 0.410156 0.773438 0.542969 0.773438 L 13.457031 0.773438 C 13.589844 0.773438 13.707031 0.828125 13.804688 0.941406 C 13.902344 1.050781 13.953125 1.183594 13.953125 1.339844 Z M 13.953125 1.339844 "/>
</g>
</svg>
