<?xml version="1.0" encoding="UTF-8"?>
<svg xmlns="http://www.w3.org/2000/svg" xmlns:xlink="http://www.w3.org/1999/xlink" width="14pt" height="14pt" viewBox="0 0 14 14" version="1.1">
<g id="surface1">
<path style=" stroke:none;fill-rule:nonzero;fill:rgb(0%,0%,0%);fill-opacity:1;" d="M 9.308594 7.691406 C 9.308594 7.625 9.285156 7.570312 9.242188 7.527344 C 9.199219 7.484375 9.144531 7.460938 9.078125 7.460938 L 7.460938 7.460938 L 7.460938 4.921875 C 7.460938 4.859375 7.4375 4.804688 7.394531 4.761719 C 7.347656 4.714844 7.292969 4.691406 7.230469 4.691406 L 5.847656 4.691406 C 5.785156 4.691406 5.730469 4.714844 5.683594 4.761719 C 5.636719 4.804688 5.613281 4.859375 5.613281 4.921875 L 5.613281 7.460938 L 4 7.460938 C 3.9375 7.460938 3.882812 7.484375 3.835938 7.53125 C 3.789062 7.574219 3.769531 7.628906 3.769531 7.691406 C 3.769531 7.761719 3.789062 7.816406 3.832031 7.859375 L 6.371094 10.398438 C 6.414062 10.441406 6.472656 10.460938 6.539062 10.460938 C 6.605469 10.460938 6.660156 10.441406 6.703125 10.398438 L 9.238281 7.867188 C 9.285156 7.808594 9.308594 7.75 9.308594 7.691406 Z M 13.925781 9.308594 C 13.925781 10.074219 13.65625 10.726562 13.113281 11.265625 C 12.574219 11.808594 11.921875 12.078125 11.15625 12.078125 L 3.304688 12.078125 C 2.417969 12.078125 1.65625 11.761719 1.023438 11.128906 C 0.390625 10.496094 0.0742188 9.738281 0.0742188 8.847656 C 0.0742188 8.222656 0.242188 7.644531 0.578125 7.117188 C 0.917969 6.585938 1.367188 6.191406 1.9375 5.925781 C 1.925781 5.78125 1.921875 5.675781 1.921875 5.613281 C 1.921875 4.59375 2.28125 3.726562 3.003906 3.003906 C 3.726562 2.28125 4.59375 1.921875 5.613281 1.921875 C 6.363281 1.921875 7.050781 2.128906 7.675781 2.550781 C 8.296875 2.96875 8.75 3.523438 9.035156 4.214844 C 9.375 3.917969 9.773438 3.769531 10.230469 3.769531 C 10.742188 3.769531 11.175781 3.949219 11.539062 4.308594 C 11.898438 4.667969 12.078125 5.105469 12.078125 5.613281 C 12.078125 5.980469 11.980469 6.3125 11.78125 6.609375 C 12.40625 6.757812 12.921875 7.085938 13.324219 7.589844 C 13.726562 8.089844 13.925781 8.664062 13.925781 9.308594 Z M 13.925781 9.308594 "/>
</g>
</svg>
