<?xml version="1.0" encoding="UTF-8"?>
<svg xmlns="http://www.w3.org/2000/svg" xmlns:xlink="http://www.w3.org/1999/xlink" width="14pt" height="14pt" viewBox="0 0 14 14" version="1.1">
<g id="surface1">
<path style=" stroke:none;fill-rule:nonzero;fill:rgb(0%,0%,0%);fill-opacity:1;" d="M 12.917969 7 C 12.136719 5.789062 11.160156 4.878906 9.980469 4.28125 C 10.296875 4.8125 10.453125 5.390625 10.453125 6.011719 C 10.453125 6.964844 10.113281 7.777344 9.4375 8.453125 C 8.761719 9.128906 7.949219 9.464844 7 9.464844 C 6.050781 9.464844 5.238281 9.128906 4.5625 8.453125 C 3.886719 7.777344 3.546875 6.964844 3.546875 6.011719 C 3.546875 5.390625 3.703125 4.8125 4.019531 4.28125 C 2.839844 4.878906 1.863281 5.789062 1.082031 7 C 1.765625 8.054688 2.621094 8.890625 3.652344 9.515625 C 4.679688 10.140625 5.796875 10.453125 7 10.453125 C 8.203125 10.453125 9.320312 10.140625 10.347656 9.515625 C 11.378906 8.890625 12.234375 8.054688 12.917969 7 Z M 7.371094 4.039062 C 7.371094 3.9375 7.332031 3.851562 7.261719 3.777344 C 7.191406 3.707031 7.101562 3.671875 7 3.671875 C 6.359375 3.671875 5.808594 3.902344 5.347656 4.359375 C 4.886719 4.820312 4.65625 5.371094 4.65625 6.011719 C 4.65625 6.117188 4.691406 6.203125 4.765625 6.277344 C 4.835938 6.347656 4.925781 6.382812 5.027344 6.382812 C 5.128906 6.382812 5.21875 6.347656 5.289062 6.277344 C 5.359375 6.203125 5.398438 6.117188 5.398438 6.011719 C 5.398438 5.570312 5.554688 5.195312 5.867188 4.878906 C 6.179688 4.566406 6.558594 4.410156 7 4.410156 C 7.101562 4.410156 7.191406 4.375 7.261719 4.300781 C 7.332031 4.230469 7.371094 4.144531 7.371094 4.039062 Z M 13.90625 7 C 13.90625 7.175781 13.855469 7.351562 13.75 7.53125 C 13.03125 8.714844 12.0625 9.660156 10.847656 10.371094 C 9.632812 11.082031 8.351562 11.4375 7 11.4375 C 5.648438 11.4375 4.367188 11.082031 3.152344 10.367188 C 1.9375 9.652344 0.96875 8.707031 0.25 7.53125 C 0.144531 7.351562 0.09375 7.175781 0.09375 7 C 0.09375 6.824219 0.144531 6.648438 0.25 6.46875 C 0.96875 5.292969 1.9375 4.347656 3.152344 3.632812 C 4.367188 2.917969 5.648438 2.5625 7 2.5625 C 8.351562 2.5625 9.632812 2.917969 10.847656 3.632812 C 12.0625 4.347656 13.03125 5.292969 13.75 6.46875 C 13.855469 6.648438 13.90625 6.824219 13.90625 7 Z M 13.90625 7 "/>
</g>
</svg>
