<?xml version="1.0" encoding="UTF-8"?>
<svg xmlns="http://www.w3.org/2000/svg" xmlns:xlink="http://www.w3.org/1999/xlink" width="14pt" height="14pt" viewBox="0 0 14 14" version="1.1">
<g id="surface1">
<path style=" stroke:none;fill-rule:nonzero;fill:rgb(0%,0%,0%);fill-opacity:1;" d="M 13.78125 7.867188 C 13.78125 8.015625 13.707031 8.175781 13.558594 8.34375 L 11.132812 11.199219 C 10.925781 11.445312 10.636719 11.65625 10.261719 11.824219 C 9.890625 11.996094 9.542969 12.082031 9.226562 12.082031 L 1.375 12.082031 C 1.210938 12.082031 1.0625 12.050781 0.9375 11.988281 C 0.808594 11.925781 0.746094 11.820312 0.746094 11.675781 C 0.746094 11.527344 0.820312 11.371094 0.96875 11.199219 L 3.394531 8.34375 C 3.601562 8.097656 3.890625 7.890625 4.265625 7.71875 C 4.636719 7.546875 4.984375 7.460938 5.300781 7.460938 L 13.152344 7.460938 C 13.316406 7.460938 13.460938 7.492188 13.589844 7.554688 C 13.71875 7.617188 13.78125 7.722656 13.78125 7.867188 Z M 11.304688 5.382812 L 11.304688 6.539062 L 5.300781 6.539062 C 4.847656 6.539062 4.375 6.652344 3.878906 6.882812 C 3.382812 7.109375 2.988281 7.398438 2.695312 7.742188 L 0.261719 10.601562 L 0.226562 10.644531 C 0.226562 10.625 0.222656 10.597656 0.222656 10.554688 C 0.21875 10.515625 0.21875 10.484375 0.21875 10.464844 L 0.21875 3.535156 C 0.21875 3.09375 0.378906 2.710938 0.695312 2.394531 C 1.011719 2.078125 1.394531 1.917969 1.835938 1.917969 L 4.144531 1.917969 C 4.589844 1.917969 4.96875 2.078125 5.285156 2.394531 C 5.601562 2.710938 5.761719 3.09375 5.761719 3.535156 L 5.761719 3.765625 L 9.6875 3.765625 C 10.132812 3.765625 10.511719 3.925781 10.828125 4.242188 C 11.148438 4.558594 11.304688 4.941406 11.304688 5.382812 Z M 11.304688 5.382812 "/>
</g>
</svg>
