<?xml version="1.0" encoding="UTF-8"?>
<svg xmlns="http://www.w3.org/2000/svg" xmlns:xlink="http://www.w3.org/1999/xlink" width="14pt" height="14pt" viewBox="0 0 14 14" version="1.1">
<g id="surface1">
<path style=" stroke:none;fill-rule:nonzero;fill:rgb(0%,0%,0%);fill-opacity:1;" d="M 7 0.210938 C 8.230469 0.210938 9.367188 0.511719 10.410156 1.121094 C 11.449219 1.726562 12.273438 2.550781 12.878906 3.589844 C 13.488281 4.632812 13.789062 5.769531 13.789062 7 C 13.789062 8.230469 13.488281 9.367188 12.878906 10.410156 C 12.273438 11.449219 11.449219 12.273438 10.410156 12.878906 C 9.367188 13.488281 8.230469 13.789062 7 13.789062 C 5.769531 13.789062 4.632812 13.488281 3.589844 12.878906 C 2.550781 12.273438 1.726562 11.449219 1.121094 10.410156 C 0.511719 9.367188 0.210938 8.230469 0.210938 7 C 0.210938 5.769531 0.511719 4.632812 1.121094 3.589844 C 1.726562 2.550781 2.550781 1.726562 3.589844 1.121094 C 4.632812 0.511719 5.769531 0.210938 7 0.210938 Z M 9.421875 4.816406 C 9.410156 4.820312 9.382812 4.851562 9.339844 4.898438 C 9.292969 4.949219 9.253906 4.976562 9.21875 4.984375 C 9.230469 4.984375 9.246094 4.96875 9.257812 4.941406 C 9.273438 4.910156 9.289062 4.878906 9.304688 4.84375 C 9.316406 4.808594 9.328125 4.785156 9.335938 4.78125 C 9.371094 4.738281 9.433594 4.695312 9.527344 4.648438 C 9.609375 4.613281 9.765625 4.578125 9.988281 4.542969 C 10.1875 4.496094 10.339844 4.527344 10.4375 4.640625 C 10.425781 4.628906 10.457031 4.589844 10.523438 4.523438 C 10.589844 4.460938 10.632812 4.425781 10.652344 4.417969 C 10.667969 4.40625 10.714844 4.394531 10.785156 4.378906 C 10.855469 4.363281 10.898438 4.339844 10.917969 4.3125 L 10.933594 4.117188 C 10.863281 4.125 10.8125 4.101562 10.78125 4.054688 C 10.746094 4.007812 10.726562 3.945312 10.722656 3.871094 C 10.722656 3.882812 10.703125 3.90625 10.667969 3.941406 C 10.667969 3.898438 10.65625 3.875 10.628906 3.871094 C 10.601562 3.863281 10.570312 3.867188 10.527344 3.878906 C 10.488281 3.890625 10.460938 3.894531 10.449219 3.886719 C 10.390625 3.871094 10.34375 3.847656 10.316406 3.820312 C 10.285156 3.792969 10.261719 3.746094 10.246094 3.675781 C 10.226562 3.605469 10.214844 3.5625 10.210938 3.542969 C 10.199219 3.511719 10.167969 3.484375 10.125 3.449219 C 10.082031 3.417969 10.054688 3.386719 10.042969 3.355469 C 10.035156 3.34375 10.027344 3.328125 10.019531 3.308594 C 10.011719 3.289062 10 3.269531 9.992188 3.25 C 9.984375 3.234375 9.972656 3.21875 9.957031 3.203125 C 9.941406 3.1875 9.925781 3.179688 9.910156 3.179688 C 9.890625 3.179688 9.871094 3.195312 9.847656 3.222656 C 9.824219 3.253906 9.800781 3.285156 9.78125 3.3125 C 9.761719 3.34375 9.746094 3.355469 9.742188 3.355469 C 9.722656 3.34375 9.707031 3.339844 9.6875 3.34375 C 9.671875 3.347656 9.65625 3.351562 9.648438 3.351562 C 9.640625 3.355469 9.625 3.363281 9.609375 3.378906 C 9.589844 3.394531 9.574219 3.40625 9.5625 3.410156 C 9.546875 3.421875 9.519531 3.429688 9.488281 3.4375 C 9.457031 3.441406 9.429688 3.449219 9.414062 3.453125 C 9.503906 3.425781 9.5 3.390625 9.40625 3.355469 C 9.347656 3.332031 9.300781 3.324219 9.261719 3.332031 C 9.316406 3.308594 9.339844 3.273438 9.328125 3.222656 C 9.320312 3.175781 9.296875 3.136719 9.253906 3.101562 L 9.300781 3.101562 C 9.292969 3.078125 9.269531 3.050781 9.222656 3.027344 C 9.179688 3 9.128906 2.972656 9.070312 2.949219 C 9.011719 2.925781 8.972656 2.910156 8.953125 2.898438 C 8.90625 2.867188 8.808594 2.839844 8.652344 2.8125 C 8.5 2.785156 8.402344 2.785156 8.363281 2.808594 C 8.332031 2.84375 8.320312 2.875 8.320312 2.902344 C 8.324219 2.929688 8.335938 2.96875 8.355469 3.027344 C 8.378906 3.082031 8.386719 3.117188 8.386719 3.136719 C 8.394531 3.171875 8.378906 3.210938 8.339844 3.25 C 8.300781 3.292969 8.28125 3.328125 8.28125 3.355469 C 8.28125 3.398438 8.324219 3.445312 8.40625 3.496094 C 8.488281 3.542969 8.519531 3.609375 8.496094 3.683594 C 8.476562 3.730469 8.429688 3.777344 8.351562 3.824219 C 8.277344 3.871094 8.230469 3.910156 8.210938 3.933594 C 8.183594 3.980469 8.175781 4.035156 8.199219 4.09375 C 8.21875 4.15625 8.25 4.207031 8.289062 4.242188 C 8.300781 4.253906 8.308594 4.265625 8.304688 4.277344 C 8.300781 4.289062 8.289062 4.300781 8.273438 4.316406 C 8.253906 4.332031 8.238281 4.34375 8.222656 4.351562 C 8.210938 4.359375 8.191406 4.371094 8.167969 4.382812 L 8.140625 4.402344 C 8.074219 4.429688 8.015625 4.414062 7.960938 4.347656 C 7.902344 4.28125 7.863281 4.207031 7.839844 4.117188 C 7.796875 3.96875 7.75 3.882812 7.699219 3.851562 C 7.5625 3.804688 7.476562 3.808594 7.441406 3.859375 C 7.414062 3.785156 7.292969 3.707031 7.078125 3.632812 C 6.933594 3.578125 6.761719 3.566406 6.566406 3.597656 C 6.601562 3.589844 6.601562 3.546875 6.566406 3.464844 C 6.527344 3.375 6.46875 3.339844 6.398438 3.355469 C 6.417969 3.320312 6.429688 3.269531 6.433594 3.203125 C 6.441406 3.132812 6.441406 3.09375 6.441406 3.082031 C 6.460938 3.007812 6.496094 2.9375 6.550781 2.878906 C 6.554688 2.875 6.574219 2.847656 6.609375 2.804688 C 6.644531 2.761719 6.675781 2.71875 6.695312 2.683594 C 6.714844 2.648438 6.71875 2.632812 6.699219 2.632812 C 6.90625 2.65625 7.054688 2.625 7.140625 2.535156 C 7.171875 2.503906 7.203125 2.457031 7.242188 2.382812 C 7.28125 2.3125 7.3125 2.265625 7.335938 2.234375 C 7.390625 2.199219 7.429688 2.183594 7.460938 2.1875 C 7.488281 2.1875 7.53125 2.203125 7.589844 2.234375 C 7.644531 2.265625 7.6875 2.277344 7.714844 2.277344 C 7.796875 2.285156 7.84375 2.253906 7.851562 2.179688 C 7.863281 2.109375 7.839844 2.050781 7.785156 2.003906 C 7.859375 2.011719 7.867188 1.960938 7.8125 1.855469 C 7.785156 1.8125 7.761719 1.785156 7.742188 1.773438 C 7.671875 1.75 7.59375 1.765625 7.503906 1.820312 C 7.457031 1.84375 7.460938 1.867188 7.523438 1.890625 C 7.515625 1.882812 7.488281 1.914062 7.4375 1.980469 C 7.386719 2.050781 7.339844 2.101562 7.292969 2.136719 C 7.246094 2.171875 7.199219 2.15625 7.148438 2.09375 C 7.144531 2.085938 7.128906 2.046875 7.101562 1.972656 C 7.074219 1.898438 7.046875 1.859375 7.019531 1.855469 C 6.96875 1.855469 6.921875 1.898438 6.875 1.988281 C 6.894531 1.941406 6.863281 1.894531 6.777344 1.855469 C 6.695312 1.8125 6.625 1.789062 6.566406 1.785156 C 6.679688 1.710938 6.65625 1.632812 6.496094 1.542969 C 6.453125 1.519531 6.394531 1.507812 6.316406 1.5 C 6.234375 1.496094 6.175781 1.507812 6.140625 1.535156 C 6.113281 1.578125 6.097656 1.609375 6.09375 1.636719 C 6.089844 1.664062 6.105469 1.6875 6.136719 1.707031 C 6.171875 1.730469 6.203125 1.746094 6.230469 1.757812 C 6.261719 1.769531 6.292969 1.78125 6.332031 1.792969 C 6.371094 1.804688 6.394531 1.8125 6.40625 1.820312 C 6.488281 1.878906 6.515625 1.917969 6.476562 1.941406 C 6.464844 1.949219 6.441406 1.957031 6.402344 1.972656 C 6.363281 1.988281 6.332031 2 6.300781 2.011719 C 6.273438 2.023438 6.253906 2.035156 6.25 2.046875 C 6.230469 2.070312 6.230469 2.113281 6.25 2.171875 C 6.265625 2.230469 6.261719 2.273438 6.230469 2.296875 C 6.203125 2.265625 6.175781 2.214844 6.152344 2.140625 C 6.128906 2.066406 6.105469 2.019531 6.089844 1.996094 C 6.128906 2.046875 6.058594 2.066406 5.867188 2.046875 L 5.78125 2.039062 C 5.757812 2.039062 5.710938 2.046875 5.636719 2.058594 C 5.566406 2.070312 5.507812 2.070312 5.457031 2.066406 C 5.40625 2.058594 5.367188 2.035156 5.335938 1.996094 C 5.3125 1.949219 5.3125 1.890625 5.335938 1.820312 C 5.34375 1.796875 5.355469 1.789062 5.375 1.800781 C 5.347656 1.785156 5.316406 1.753906 5.277344 1.71875 C 5.234375 1.679688 5.207031 1.652344 5.1875 1.640625 C 4.917969 1.730469 4.640625 1.851562 4.355469 2.003906 C 4.390625 2.011719 4.425781 2.007812 4.460938 1.996094 C 4.492188 1.984375 4.53125 1.964844 4.578125 1.9375 C 4.625 1.910156 4.652344 1.894531 4.664062 1.890625 C 4.867188 1.808594 4.988281 1.785156 5.039062 1.828125 L 5.082031 1.785156 C 5.164062 1.878906 5.222656 1.953125 5.257812 2.003906 C 5.21875 1.980469 5.128906 1.976562 4.992188 1.996094 C 4.875 2.03125 4.808594 2.066406 4.796875 2.101562 C 4.839844 2.171875 4.855469 2.226562 4.84375 2.261719 C 4.820312 2.242188 4.785156 2.214844 4.742188 2.171875 C 4.695312 2.132812 4.652344 2.097656 4.613281 2.074219 C 4.570312 2.050781 4.527344 2.035156 4.480469 2.03125 C 4.386719 2.03125 4.320312 2.035156 4.285156 2.039062 C 3.425781 2.511719 2.730469 3.164062 2.207031 4.003906 C 2.25 4.042969 2.285156 4.066406 2.3125 4.074219 C 2.335938 4.078125 2.351562 4.105469 2.359375 4.152344 C 2.363281 4.199219 2.371094 4.234375 2.378906 4.25 C 2.390625 4.269531 2.421875 4.257812 2.480469 4.222656 C 2.535156 4.269531 2.542969 4.328125 2.507812 4.390625 C 2.515625 4.386719 2.644531 4.464844 2.898438 4.628906 C 3.007812 4.730469 3.070312 4.792969 3.082031 4.816406 C 3.101562 4.882812 3.070312 4.933594 2.996094 4.976562 C 2.988281 4.964844 2.960938 4.9375 2.914062 4.894531 C 2.867188 4.855469 2.839844 4.84375 2.835938 4.859375 C 2.816406 4.890625 2.820312 4.945312 2.839844 5.023438 C 2.859375 5.101562 2.890625 5.140625 2.933594 5.132812 C 2.890625 5.132812 2.863281 5.179688 2.847656 5.277344 C 2.835938 5.371094 2.828125 5.476562 2.828125 5.589844 C 2.828125 5.703125 2.824219 5.773438 2.816406 5.796875 L 2.835938 5.804688 C 2.816406 5.878906 2.835938 5.980469 2.882812 6.113281 C 2.933594 6.242188 2.996094 6.300781 3.074219 6.285156 C 2.996094 6.300781 3.054688 6.429688 3.25 6.664062 C 3.285156 6.710938 3.308594 6.738281 3.320312 6.742188 C 3.339844 6.753906 3.375 6.777344 3.429688 6.808594 C 3.480469 6.84375 3.523438 6.871094 3.5625 6.898438 C 3.597656 6.925781 3.625 6.957031 3.648438 6.992188 C 3.671875 7.019531 3.703125 7.085938 3.738281 7.191406 C 3.773438 7.292969 3.8125 7.363281 3.859375 7.398438 C 3.847656 7.433594 3.878906 7.492188 3.945312 7.574219 C 4.011719 7.65625 4.042969 7.726562 4.039062 7.777344 C 4.03125 7.777344 4.023438 7.78125 4.015625 7.785156 C 4.007812 7.792969 4 7.796875 3.992188 7.796875 C 4.011719 7.835938 4.058594 7.878906 4.128906 7.917969 C 4.203125 7.960938 4.25 8 4.269531 8.035156 C 4.273438 8.050781 4.28125 8.082031 4.285156 8.121094 C 4.292969 8.164062 4.300781 8.195312 4.3125 8.21875 C 4.324219 8.242188 4.347656 8.25 4.382812 8.238281 C 4.394531 8.121094 4.324219 7.9375 4.171875 7.691406 C 4.082031 7.542969 4.03125 7.457031 4.019531 7.433594 C 4.003906 7.402344 3.988281 7.359375 3.972656 7.296875 C 3.957031 7.234375 3.945312 7.191406 3.933594 7.167969 C 3.945312 7.167969 3.960938 7.171875 3.984375 7.179688 C 4.007812 7.191406 4.035156 7.199219 4.058594 7.210938 C 4.085938 7.222656 4.109375 7.234375 4.125 7.246094 C 4.144531 7.257812 4.148438 7.269531 4.144531 7.273438 C 4.125 7.316406 4.132812 7.367188 4.160156 7.429688 C 4.191406 7.492188 4.226562 7.546875 4.269531 7.59375 C 4.308594 7.640625 4.359375 7.695312 4.417969 7.761719 C 4.476562 7.824219 4.511719 7.863281 4.523438 7.875 C 4.558594 7.910156 4.601562 7.96875 4.648438 8.046875 C 4.695312 8.128906 4.695312 8.167969 4.648438 8.167969 C 4.699219 8.167969 4.761719 8.195312 4.824219 8.253906 C 4.890625 8.316406 4.941406 8.375 4.976562 8.433594 C 5.003906 8.480469 5.027344 8.554688 5.046875 8.664062 C 5.0625 8.769531 5.078125 8.839844 5.089844 8.875 C 5.101562 8.914062 5.128906 8.957031 5.164062 8.992188 C 5.203125 9.03125 5.242188 9.058594 5.277344 9.078125 L 5.417969 9.148438 C 5.417969 9.148438 5.457031 9.167969 5.53125 9.210938 C 5.5625 9.222656 5.617188 9.253906 5.695312 9.304688 C 5.777344 9.351562 5.839844 9.386719 5.886719 9.40625 C 5.945312 9.429688 5.992188 9.441406 6.027344 9.441406 C 6.0625 9.441406 6.105469 9.433594 6.15625 9.417969 C 6.207031 9.402344 6.246094 9.394531 6.273438 9.386719 C 6.363281 9.375 6.449219 9.417969 6.53125 9.519531 C 6.613281 9.621094 6.675781 9.683594 6.71875 9.707031 C 6.929688 9.816406 7.089844 9.851562 7.203125 9.804688 C 7.191406 9.808594 7.191406 9.832031 7.207031 9.871094 C 7.222656 9.90625 7.246094 9.953125 7.277344 10.007812 C 7.3125 10.058594 7.335938 10.101562 7.359375 10.132812 C 7.378906 10.167969 7.394531 10.191406 7.40625 10.210938 C 7.4375 10.246094 7.488281 10.289062 7.566406 10.34375 C 7.640625 10.394531 7.695312 10.4375 7.726562 10.476562 C 7.761719 10.453125 7.78125 10.425781 7.785156 10.394531 C 7.769531 10.441406 7.789062 10.5 7.847656 10.570312 C 7.90625 10.644531 7.960938 10.671875 8.007812 10.660156 C 8.089844 10.644531 8.132812 10.546875 8.132812 10.378906 C 7.949219 10.464844 7.804688 10.414062 7.699219 10.21875 C 7.699219 10.210938 7.691406 10.195312 7.675781 10.167969 C 7.660156 10.144531 7.648438 10.117188 7.640625 10.09375 C 7.632812 10.070312 7.625 10.046875 7.617188 10.019531 C 7.613281 9.992188 7.613281 9.972656 7.617188 9.953125 C 7.625 9.933594 7.640625 9.925781 7.664062 9.925781 C 7.714844 9.925781 7.746094 9.917969 7.75 9.894531 C 7.757812 9.875 7.75 9.839844 7.734375 9.785156 C 7.714844 9.730469 7.703125 9.695312 7.699219 9.671875 C 7.691406 9.625 7.660156 9.5625 7.601562 9.492188 C 7.542969 9.421875 7.507812 9.378906 7.496094 9.359375 C 7.464844 9.414062 7.417969 9.4375 7.355469 9.429688 C 7.289062 9.425781 7.242188 9.398438 7.210938 9.351562 C 7.210938 9.359375 7.207031 9.375 7.199219 9.402344 C 7.191406 9.425781 7.1875 9.445312 7.1875 9.457031 C 7.109375 9.457031 7.066406 9.453125 7.054688 9.449219 C 7.058594 9.429688 7.066406 9.378906 7.074219 9.292969 C 7.085938 9.207031 7.09375 9.144531 7.105469 9.09375 C 7.113281 9.070312 7.128906 9.035156 7.15625 8.988281 C 7.179688 8.941406 7.203125 8.898438 7.222656 8.859375 C 7.238281 8.824219 7.25 8.785156 7.257812 8.75 C 7.261719 8.714844 7.25 8.6875 7.214844 8.667969 C 7.183594 8.644531 7.132812 8.640625 7.0625 8.644531 C 6.949219 8.652344 6.875 8.710938 6.832031 8.820312 C 6.824219 8.839844 6.816406 8.871094 6.804688 8.914062 C 6.792969 8.957031 6.777344 8.992188 6.761719 9.015625 C 6.742188 9.039062 6.71875 9.058594 6.683594 9.078125 C 6.640625 9.09375 6.570312 9.101562 6.46875 9.09375 C 6.371094 9.089844 6.296875 9.074219 6.257812 9.050781 C 6.179688 9.003906 6.113281 8.917969 6.058594 8.792969 C 6.003906 8.671875 5.972656 8.5625 5.972656 8.46875 C 5.972656 8.410156 5.980469 8.332031 5.996094 8.234375 C 6.011719 8.136719 6.019531 8.0625 6.023438 8.011719 C 6.027344 7.960938 6.007812 7.890625 5.972656 7.796875 C 5.992188 7.785156 6.019531 7.757812 6.054688 7.710938 C 6.089844 7.667969 6.117188 7.636719 6.140625 7.617188 C 6.152344 7.613281 6.167969 7.609375 6.183594 7.605469 C 6.195312 7.601562 6.210938 7.601562 6.222656 7.605469 C 6.234375 7.609375 6.246094 7.605469 6.257812 7.59375 C 6.269531 7.582031 6.277344 7.5625 6.285156 7.539062 C 6.277344 7.535156 6.265625 7.523438 6.25 7.511719 C 6.230469 7.496094 6.21875 7.484375 6.214844 7.484375 C 6.253906 7.503906 6.339844 7.5 6.464844 7.472656 C 6.59375 7.445312 6.671875 7.449219 6.707031 7.484375 C 6.796875 7.550781 6.863281 7.546875 6.902344 7.46875 C 6.902344 7.460938 6.894531 7.433594 6.878906 7.382812 C 6.867188 7.335938 6.863281 7.292969 6.875 7.265625 C 6.90625 7.425781 6.992188 7.449219 7.132812 7.34375 C 7.148438 7.363281 7.195312 7.378906 7.269531 7.390625 C 7.34375 7.402344 7.394531 7.414062 7.425781 7.433594 C 7.441406 7.445312 7.460938 7.460938 7.484375 7.480469 C 7.511719 7.503906 7.527344 7.515625 7.535156 7.523438 C 7.542969 7.527344 7.558594 7.527344 7.578125 7.515625 C 7.601562 7.507812 7.625 7.488281 7.652344 7.460938 C 7.714844 7.542969 7.75 7.613281 7.761719 7.671875 C 7.824219 7.90625 7.882812 8.039062 7.929688 8.0625 C 7.96875 8.078125 8.003906 8.085938 8.027344 8.078125 C 8.050781 8.074219 8.0625 8.042969 8.066406 7.996094 C 8.070312 7.945312 8.070312 7.902344 8.066406 7.871094 C 8.0625 7.839844 8.058594 7.800781 8.050781 7.761719 L 8.042969 7.691406 L 8.042969 7.53125 L 8.035156 7.460938 C 7.945312 7.441406 7.890625 7.40625 7.871094 7.355469 C 7.851562 7.300781 7.855469 7.246094 7.882812 7.191406 C 7.914062 7.132812 7.957031 7.078125 8.015625 7.027344 C 8.023438 7.019531 8.046875 7.011719 8.085938 6.996094 C 8.128906 6.980469 8.175781 6.960938 8.222656 6.9375 C 8.273438 6.914062 8.3125 6.890625 8.335938 6.867188 C 8.457031 6.753906 8.503906 6.652344 8.46875 6.558594 C 8.507812 6.558594 8.542969 6.53125 8.566406 6.476562 C 8.558594 6.476562 8.542969 6.46875 8.519531 6.453125 C 8.496094 6.433594 8.476562 6.417969 8.453125 6.40625 C 8.433594 6.394531 8.421875 6.390625 8.414062 6.390625 C 8.46875 6.359375 8.472656 6.3125 8.433594 6.25 C 8.460938 6.230469 8.484375 6.199219 8.5 6.152344 C 8.511719 6.105469 8.535156 6.074219 8.566406 6.0625 C 8.617188 6.132812 8.679688 6.140625 8.75 6.082031 C 8.792969 6.035156 8.792969 5.984375 8.757812 5.9375 C 8.789062 5.898438 8.847656 5.867188 8.941406 5.847656 C 9.03125 5.824219 9.085938 5.796875 9.105469 5.761719 C 9.144531 5.773438 9.167969 5.769531 9.175781 5.746094 C 9.179688 5.722656 9.183594 5.683594 9.183594 5.636719 C 9.183594 5.589844 9.191406 5.554688 9.210938 5.53125 C 9.234375 5.503906 9.277344 5.476562 9.34375 5.453125 C 9.40625 5.429688 9.445312 5.414062 9.457031 5.410156 L 9.609375 5.3125 C 9.625 5.289062 9.625 5.277344 9.609375 5.277344 C 9.714844 5.289062 9.804688 5.253906 9.882812 5.179688 C 9.941406 5.113281 9.921875 5.054688 9.828125 5 C 9.847656 4.964844 9.839844 4.9375 9.804688 4.917969 C 9.765625 4.898438 9.722656 4.882812 9.671875 4.867188 C 9.6875 4.863281 9.722656 4.863281 9.773438 4.863281 C 9.820312 4.867188 9.851562 4.863281 9.863281 4.851562 C 9.953125 4.792969 9.933594 4.746094 9.804688 4.710938 C 9.703125 4.679688 9.574219 4.714844 9.421875 4.816406 Z M 7.980469 12.570312 C 9.195312 12.359375 10.230469 11.800781 11.085938 10.898438 C 11.066406 10.882812 11.03125 10.867188 10.972656 10.859375 C 10.917969 10.851562 10.882812 10.839844 10.863281 10.828125 C 10.757812 10.789062 10.6875 10.761719 10.652344 10.757812 C 10.65625 10.714844 10.648438 10.679688 10.628906 10.644531 C 10.609375 10.609375 10.585938 10.582031 10.558594 10.5625 C 10.53125 10.546875 10.496094 10.523438 10.449219 10.492188 C 10.402344 10.464844 10.367188 10.441406 10.351562 10.429688 C 10.339844 10.417969 10.320312 10.402344 10.289062 10.378906 C 10.257812 10.355469 10.238281 10.335938 10.226562 10.328125 C 10.214844 10.320312 10.191406 10.308594 10.160156 10.289062 C 10.128906 10.269531 10.101562 10.265625 10.085938 10.269531 C 10.066406 10.277344 10.039062 10.28125 9.996094 10.28125 L 9.972656 10.289062 C 9.953125 10.296875 9.9375 10.300781 9.921875 10.3125 C 9.90625 10.320312 9.890625 10.328125 9.875 10.335938 C 9.855469 10.347656 9.84375 10.355469 9.839844 10.363281 C 9.832031 10.375 9.832031 10.378906 9.839844 10.386719 C 9.714844 10.285156 9.609375 10.222656 9.519531 10.191406 C 9.492188 10.1875 9.457031 10.167969 9.421875 10.144531 C 9.386719 10.117188 9.355469 10.097656 9.328125 10.082031 C 9.304688 10.066406 9.273438 10.0625 9.242188 10.066406 C 9.207031 10.074219 9.175781 10.09375 9.140625 10.128906 C 9.109375 10.160156 9.09375 10.203125 9.085938 10.261719 C 9.082031 10.320312 9.074219 10.359375 9.070312 10.378906 C 9.027344 10.347656 9.027344 10.296875 9.070312 10.222656 C 9.109375 10.148438 9.117188 10.09375 9.085938 10.058594 C 9.070312 10.023438 9.039062 10.011719 8.992188 10.019531 C 8.949219 10.027344 8.914062 10.042969 8.886719 10.058594 C 8.859375 10.078125 8.828125 10.101562 8.785156 10.132812 C 8.746094 10.167969 8.71875 10.1875 8.707031 10.191406 C 8.695312 10.199219 8.667969 10.214844 8.632812 10.242188 C 8.59375 10.265625 8.566406 10.289062 8.554688 10.308594 C 8.539062 10.332031 8.519531 10.367188 8.503906 10.414062 C 8.484375 10.460938 8.46875 10.492188 8.457031 10.511719 C 8.445312 10.488281 8.414062 10.46875 8.355469 10.453125 C 8.300781 10.4375 8.273438 10.421875 8.273438 10.402344 C 8.285156 10.464844 8.296875 10.566406 8.308594 10.714844 C 8.320312 10.859375 8.335938 10.972656 8.351562 11.050781 C 8.394531 11.230469 8.359375 11.375 8.246094 11.472656 C 8.085938 11.621094 8.003906 11.738281 7.992188 11.828125 C 7.964844 11.957031 8.003906 12.035156 8.097656 12.058594 C 8.097656 12.097656 8.074219 12.160156 8.027344 12.238281 C 7.976562 12.316406 7.957031 12.382812 7.964844 12.429688 C 7.964844 12.464844 7.96875 12.511719 7.980469 12.570312 Z M 7.980469 12.570312 "/>
</g>
</svg>
