<?xml version="1.0" encoding="UTF-8"?>
<svg xmlns="http://www.w3.org/2000/svg" xmlns:xlink="http://www.w3.org/1999/xlink" width="14pt" height="14pt" viewBox="0 0 14 14" version="1.1">
<g id="surface1">
<path style=" stroke:none;fill-rule:nonzero;fill:rgb(0%,0%,0%);fill-opacity:1;" d="M 11.835938 7.910156 L 11.835938 12.390625 C 11.835938 12.550781 11.785156 12.691406 11.675781 12.808594 C 11.570312 12.929688 11.445312 12.988281 11.300781 12.988281 L 8.074219 12.988281 L 8.074219 9.402344 L 5.925781 9.402344 L 5.925781 12.988281 L 2.699219 12.988281 C 2.554688 12.988281 2.429688 12.929688 2.324219 12.808594 C 2.214844 12.691406 2.164062 12.550781 2.164062 12.390625 L 2.164062 7.910156 C 2.164062 7.902344 2.164062 7.894531 2.167969 7.882812 C 2.171875 7.871094 2.171875 7.859375 2.171875 7.855469 L 7 3.429688 L 11.828125 7.855469 C 11.832031 7.867188 11.835938 7.886719 11.835938 7.910156 Z M 13.707031 7.265625 L 13.1875 7.957031 C 13.144531 8.011719 13.085938 8.046875 13.011719 8.058594 L 12.988281 8.058594 C 12.914062 8.058594 12.855469 8.039062 12.808594 7.992188 L 7 2.609375 L 1.191406 7.992188 C 1.121094 8.042969 1.054688 8.066406 0.988281 8.058594 C 0.914062 8.046875 0.855469 8.011719 0.8125 7.957031 L 0.292969 7.265625 C 0.246094 7.203125 0.226562 7.128906 0.230469 7.046875 C 0.238281 6.960938 0.269531 6.894531 0.324219 6.847656 L 6.363281 1.253906 C 6.539062 1.09375 6.753906 1.011719 7 1.011719 C 7.246094 1.011719 7.460938 1.09375 7.636719 1.253906 L 9.6875 3.160156 L 9.6875 1.339844 C 9.6875 1.253906 9.710938 1.179688 9.761719 1.125 C 9.8125 1.070312 9.878906 1.039062 9.957031 1.039062 L 11.566406 1.039062 C 11.644531 1.039062 11.710938 1.070312 11.761719 1.125 C 11.8125 1.179688 11.835938 1.253906 11.835938 1.339844 L 11.835938 5.148438 L 13.675781 6.847656 C 13.730469 6.894531 13.761719 6.960938 13.769531 7.046875 C 13.773438 7.128906 13.753906 7.203125 13.707031 7.265625 Z M 13.707031 7.265625 "/>
</g>
</svg>
