<?xml version="1.0" encoding="UTF-8"?>
<svg xmlns="http://www.w3.org/2000/svg" xmlns:xlink="http://www.w3.org/1999/xlink" width="14pt" height="14pt" viewBox="0 0 14 14" version="1.1">
<g id="surface1">
<path style=" stroke:none;fill-rule:nonzero;fill:rgb(0%,0%,0%);fill-opacity:1;" d="M 10.882812 1.625 L 3.117188 1.625 C 2.707031 1.625 2.355469 1.769531 2.0625 2.0625 C 1.769531 2.355469 1.625 2.707031 1.625 3.117188 L 1.625 10.882812 C 1.625 11.292969 1.769531 11.644531 2.0625 11.9375 C 2.355469 12.230469 2.707031 12.375 3.117188 12.375 L 10.882812 12.375 C 11.292969 12.375 11.644531 12.230469 11.9375 11.9375 C 12.230469 11.644531 12.375 11.292969 12.375 10.882812 L 12.375 3.117188 C 12.375 2.707031 12.230469 2.355469 11.9375 2.0625 C 11.644531 1.769531 11.292969 1.625 10.882812 1.625 Z M 13.570312 3.117188 L 13.570312 10.882812 C 13.570312 11.625 13.308594 12.257812 12.78125 12.78125 C 12.257812 13.308594 11.625 13.570312 10.882812 13.570312 L 3.117188 13.570312 C 2.375 13.570312 1.742188 13.308594 1.21875 12.78125 C 0.691406 12.257812 0.429688 11.625 0.429688 10.882812 L 0.429688 3.117188 C 0.429688 2.375 0.691406 1.742188 1.21875 1.21875 C 1.742188 0.691406 2.375 0.429688 3.117188 0.429688 L 10.882812 0.429688 C 11.625 0.429688 12.257812 0.691406 12.78125 1.21875 C 13.308594 1.742188 13.570312 2.375 13.570312 3.117188 Z M 13.570312 3.117188 "/>
</g>
</svg>
