<?xml version="1.0" encoding="UTF-8"?>
<svg xmlns="http://www.w3.org/2000/svg" xmlns:xlink="http://www.w3.org/1999/xlink" width="14pt" height="14pt" viewBox="0 0 14 14" version="1.1">
<g id="surface1">
<path style=" stroke:none;fill-rule:nonzero;fill:rgb(0%,0%,0%);fill-opacity:1;" d="M 4.609375 6.402344 L 9.390625 6.402344 L 9.390625 4.609375 C 9.390625 3.949219 9.15625 3.386719 8.6875 2.921875 C 8.222656 2.453125 7.660156 2.222656 7 2.222656 C 6.339844 2.222656 5.777344 2.453125 5.3125 2.921875 C 4.84375 3.386719 4.609375 3.949219 4.609375 4.609375 Z M 12.375 7.296875 L 12.375 12.675781 C 12.375 12.921875 12.289062 13.136719 12.113281 13.308594 C 11.941406 13.484375 11.730469 13.570312 11.480469 13.570312 L 2.519531 13.570312 C 2.269531 13.570312 2.058594 13.484375 1.886719 13.308594 C 1.710938 13.136719 1.625 12.921875 1.625 12.675781 L 1.625 7.296875 C 1.625 7.050781 1.710938 6.839844 1.886719 6.664062 C 2.058594 6.488281 2.269531 6.402344 2.519531 6.402344 L 2.820312 6.402344 L 2.820312 4.609375 C 2.820312 3.464844 3.230469 2.484375 4.050781 1.660156 C 4.871094 0.839844 5.855469 0.429688 7 0.429688 C 8.144531 0.429688 9.128906 0.839844 9.949219 1.660156 C 10.769531 2.484375 11.179688 3.464844 11.179688 4.609375 L 11.179688 6.402344 L 11.480469 6.402344 C 11.730469 6.402344 11.941406 6.488281 12.113281 6.664062 C 12.289062 6.839844 12.375 7.050781 12.375 7.296875 Z M 12.375 7.296875 "/>
</g>
</svg>
