<?xml version="1.0" encoding="UTF-8"?>
<svg xmlns="http://www.w3.org/2000/svg" xmlns:xlink="http://www.w3.org/1999/xlink" width="14pt" height="14pt" viewBox="0 0 14 14" version="1.1">
<g id="surface1">
<path style=" stroke:none;fill-rule:nonzero;fill:rgb(0%,0%,0%);fill-opacity:1;" d="M 4.03125 10.894531 L 4.03125 12.691406 C 4.03125 12.941406 3.957031 13.15625 3.8125 13.328125 C 3.667969 13.503906 3.492188 13.589844 3.285156 13.589844 L 0.8125 13.589844 C 0.605469 13.589844 0.429688 13.503906 0.285156 13.328125 C 0.140625 13.15625 0.0703125 12.941406 0.0703125 12.691406 L 0.0703125 10.894531 C 0.0703125 10.644531 0.140625 10.433594 0.285156 10.257812 C 0.429688 10.082031 0.605469 9.996094 0.8125 9.996094 L 3.285156 9.996094 C 3.492188 9.996094 3.667969 10.082031 3.8125 10.257812 C 3.957031 10.433594 4.03125 10.644531 4.03125 10.894531 Z M 4.03125 6.101562 L 4.03125 7.898438 C 4.03125 8.148438 3.957031 8.359375 3.8125 8.535156 C 3.667969 8.710938 3.492188 8.796875 3.285156 8.796875 L 0.8125 8.796875 C 0.605469 8.796875 0.429688 8.710938 0.285156 8.535156 C 0.140625 8.359375 0.0703125 8.148438 0.0703125 7.898438 L 0.0703125 6.101562 C 0.0703125 5.851562 0.140625 5.640625 0.285156 5.464844 C 0.429688 5.289062 0.605469 5.203125 0.8125 5.203125 L 3.285156 5.203125 C 3.492188 5.203125 3.667969 5.289062 3.8125 5.464844 C 3.957031 5.640625 4.03125 5.851562 4.03125 6.101562 Z M 8.980469 10.894531 L 8.980469 12.691406 C 8.980469 12.941406 8.90625 13.15625 8.765625 13.328125 C 8.621094 13.503906 8.445312 13.589844 8.238281 13.589844 L 5.761719 13.589844 C 5.554688 13.589844 5.378906 13.503906 5.234375 13.328125 C 5.09375 13.15625 5.019531 12.941406 5.019531 12.691406 L 5.019531 10.894531 C 5.019531 10.644531 5.09375 10.433594 5.234375 10.257812 C 5.378906 10.082031 5.554688 9.996094 5.761719 9.996094 L 8.238281 9.996094 C 8.445312 9.996094 8.621094 10.082031 8.765625 10.257812 C 8.90625 10.433594 8.980469 10.644531 8.980469 10.894531 Z M 4.03125 1.308594 L 4.03125 3.105469 C 4.03125 3.355469 3.957031 3.566406 3.8125 3.742188 C 3.667969 3.917969 3.492188 4.003906 3.285156 4.003906 L 0.8125 4.003906 C 0.605469 4.003906 0.429688 3.917969 0.285156 3.742188 C 0.140625 3.566406 0.0703125 3.355469 0.0703125 3.105469 L 0.0703125 1.308594 C 0.0703125 1.058594 0.140625 0.84375 0.285156 0.671875 C 0.429688 0.496094 0.605469 0.410156 0.8125 0.410156 L 3.285156 0.410156 C 3.492188 0.410156 3.667969 0.496094 3.8125 0.671875 C 3.957031 0.84375 4.03125 1.058594 4.03125 1.308594 Z M 8.980469 6.101562 L 8.980469 7.898438 C 8.980469 8.148438 8.90625 8.359375 8.765625 8.535156 C 8.621094 8.710938 8.445312 8.796875 8.238281 8.796875 L 5.761719 8.796875 C 5.554688 8.796875 5.378906 8.710938 5.234375 8.535156 C 5.09375 8.359375 5.019531 8.148438 5.019531 7.898438 L 5.019531 6.101562 C 5.019531 5.851562 5.09375 5.640625 5.234375 5.464844 C 5.378906 5.289062 5.554688 5.203125 5.761719 5.203125 L 8.238281 5.203125 C 8.445312 5.203125 8.621094 5.289062 8.765625 5.464844 C 8.90625 5.640625 8.980469 5.851562 8.980469 6.101562 Z M 13.929688 10.894531 L 13.929688 12.691406 C 13.929688 12.941406 13.859375 13.15625 13.714844 13.328125 C 13.570312 13.503906 13.394531 13.589844 13.1875 13.589844 L 10.714844 13.589844 C 10.507812 13.589844 10.332031 13.503906 10.1875 13.328125 C 10.042969 13.15625 9.96875 12.941406 9.96875 12.691406 L 9.96875 10.894531 C 9.96875 10.644531 10.042969 10.433594 10.1875 10.257812 C 10.332031 10.082031 10.507812 9.996094 10.714844 9.996094 L 13.1875 9.996094 C 13.394531 9.996094 13.570312 10.082031 13.714844 10.257812 C 13.859375 10.433594 13.929688 10.644531 13.929688 10.894531 Z M 8.980469 1.308594 L 8.980469 3.105469 C 8.980469 3.355469 8.90625 3.566406 8.765625 3.742188 C 8.621094 3.917969 8.445312 4.003906 8.238281 4.003906 L 5.761719 4.003906 C 5.554688 4.003906 5.378906 3.917969 5.234375 3.742188 C 5.09375 3.566406 5.019531 3.355469 5.019531 3.105469 L 5.019531 1.308594 C 5.019531 1.058594 5.09375 0.84375 5.234375 0.671875 C 5.378906 0.496094 5.554688 0.410156 5.761719 0.410156 L 8.238281 0.410156 C 8.445312 0.410156 8.621094 0.496094 8.765625 0.671875 C 8.90625 0.84375 8.980469 1.058594 8.980469 1.308594 Z M 13.929688 6.101562 L 13.929688 7.898438 C 13.929688 8.148438 13.859375 8.359375 13.714844 8.535156 C 13.570312 8.710938 13.394531 8.796875 13.1875 8.796875 L 10.714844 8.796875 C 10.507812 8.796875 10.332031 8.710938 10.1875 8.535156 C 10.042969 8.359375 9.96875 8.148438 9.96875 7.898438 L 9.96875 6.101562 C 9.96875 5.851562 10.042969 5.640625 10.1875 5.464844 C 10.332031 5.289062 10.507812 5.203125 10.714844 5.203125 L 13.1875 5.203125 C 13.394531 5.203125 13.570312 5.289062 13.714844 5.464844 C 13.859375 5.640625 13.929688 5.851562 13.929688 6.101562 Z M 13.929688 1.308594 L 13.929688 3.105469 C 13.929688 3.355469 13.859375 3.566406 13.714844 3.742188 C 13.570312 3.917969 13.394531 4.003906 13.1875 4.003906 L 10.714844 4.003906 C 10.507812 4.003906 10.332031 3.917969 10.1875 3.742188 C 10.042969 3.566406 9.96875 3.355469 9.96875 3.105469 L 9.96875 1.308594 C 9.96875 1.058594 10.042969 0.84375 10.1875 0.671875 C 10.332031 0.496094 10.507812 0.410156 10.714844 0.410156 L 13.1875 0.410156 C 13.394531 0.410156 13.570312 0.496094 13.714844 0.671875 C 13.859375 0.84375 13.929688 1.058594 13.929688 1.308594 Z M 13.929688 1.308594 "/>
</g>
</svg>
