<?xml version="1.0" encoding="UTF-8"?>
<svg xmlns="http://www.w3.org/2000/svg" xmlns:xlink="http://www.w3.org/1999/xlink" width="14pt" height="14pt" viewBox="0 0 14 14" version="1.1">
<g id="surface1">
<path style=" stroke:none;fill-rule:nonzero;fill:rgb(0%,0%,0%);fill-opacity:1;" d="M 13.574219 8.417969 C 13.574219 8.445312 13.574219 8.464844 13.566406 8.476562 C 13.191406 10.058594 12.398438 11.339844 11.195312 12.324219 C 9.992188 13.304688 8.582031 13.796875 6.964844 13.796875 C 6.101562 13.796875 5.269531 13.636719 4.464844 13.308594 C 3.660156 12.984375 2.941406 12.523438 2.308594 11.921875 L 1.167969 13.0625 C 1.054688 13.175781 0.921875 13.230469 0.769531 13.230469 C 0.617188 13.230469 0.484375 13.175781 0.371094 13.0625 C 0.257812 12.949219 0.203125 12.816406 0.203125 12.664062 L 0.203125 8.699219 C 0.203125 8.546875 0.257812 8.414062 0.371094 8.300781 C 0.484375 8.1875 0.617188 8.132812 0.769531 8.132812 L 4.734375 8.132812 C 4.886719 8.132812 5.019531 8.1875 5.132812 8.300781 C 5.246094 8.414062 5.300781 8.546875 5.300781 8.699219 C 5.300781 8.851562 5.246094 8.984375 5.132812 9.097656 L 3.921875 10.308594 C 4.339844 10.699219 4.8125 11 5.34375 11.210938 C 5.875 11.425781 6.425781 11.53125 7 11.53125 C 7.789062 11.53125 8.527344 11.339844 9.210938 10.957031 C 9.898438 10.574219 10.445312 10.042969 10.859375 9.371094 C 10.921875 9.273438 11.082031 8.925781 11.328125 8.335938 C 11.375 8.199219 11.464844 8.132812 11.59375 8.132812 L 13.292969 8.132812 C 13.371094 8.132812 13.4375 8.160156 13.492188 8.21875 C 13.546875 8.273438 13.574219 8.339844 13.574219 8.417969 Z M 13.796875 1.335938 L 13.796875 5.300781 C 13.796875 5.453125 13.742188 5.585938 13.628906 5.699219 C 13.515625 5.8125 13.382812 5.867188 13.230469 5.867188 L 9.265625 5.867188 C 9.113281 5.867188 8.980469 5.8125 8.867188 5.699219 C 8.753906 5.585938 8.699219 5.453125 8.699219 5.300781 C 8.699219 5.148438 8.753906 5.015625 8.867188 4.902344 L 10.089844 3.679688 C 9.214844 2.871094 8.1875 2.46875 7 2.46875 C 6.210938 2.46875 5.472656 2.660156 4.789062 3.042969 C 4.101562 3.425781 3.554688 3.957031 3.140625 4.628906 C 3.078125 4.726562 2.917969 5.074219 2.671875 5.664062 C 2.625 5.800781 2.535156 5.867188 2.40625 5.867188 L 0.644531 5.867188 C 0.570312 5.867188 0.503906 5.839844 0.445312 5.78125 C 0.390625 5.726562 0.363281 5.660156 0.363281 5.582031 L 0.363281 5.523438 C 0.746094 3.941406 1.542969 2.660156 2.75 1.675781 C 3.960938 0.695312 5.378906 0.203125 7 0.203125 C 7.863281 0.203125 8.699219 0.367188 9.511719 0.695312 C 10.328125 1.019531 11.050781 1.484375 11.683594 2.078125 L 12.832031 0.9375 C 12.945312 0.824219 13.078125 0.769531 13.230469 0.769531 C 13.382812 0.769531 13.515625 0.824219 13.628906 0.9375 C 13.742188 1.050781 13.796875 1.183594 13.796875 1.335938 Z M 13.796875 1.335938 "/>
</g>
</svg>
