<?xml version="1.0" encoding="UTF-8"?>
<svg xmlns="http://www.w3.org/2000/svg" xmlns:xlink="http://www.w3.org/1999/xlink" width="14pt" height="14pt" viewBox="0 0 14 14" version="1.1">
<g id="surface1">
<path style=" stroke:none;fill-rule:nonzero;fill:rgb(0%,0%,0%);fill-opacity:1;" d="M 13.394531 5.628906 L 9.808594 9.210938 C 9.699219 9.332031 9.558594 9.390625 9.390625 9.390625 C 9.316406 9.390625 9.238281 9.375 9.15625 9.34375 C 8.914062 9.238281 8.792969 9.054688 8.792969 8.792969 L 8.792969 7 L 7.296875 7 C 5.289062 7 3.925781 7.40625 3.210938 8.222656 C 2.46875 9.074219 2.238281 10.546875 2.519531 12.636719 C 2.539062 12.78125 2.476562 12.886719 2.332031 12.953125 C 2.285156 12.96875 2.246094 12.972656 2.222656 12.972656 C 2.121094 12.972656 2.039062 12.933594 1.980469 12.851562 C 1.917969 12.765625 1.851562 12.667969 1.78125 12.5625 C 1.714844 12.457031 1.589844 12.242188 1.414062 11.921875 C 1.238281 11.601562 1.082031 11.292969 0.953125 10.996094 C 0.820312 10.695312 0.703125 10.339844 0.59375 9.929688 C 0.484375 9.519531 0.429688 9.140625 0.429688 8.792969 C 0.429688 8.488281 0.441406 8.203125 0.460938 7.941406 C 0.484375 7.679688 0.527344 7.402344 0.59375 7.101562 C 0.65625 6.804688 0.746094 6.53125 0.855469 6.28125 C 0.960938 6.03125 1.109375 5.777344 1.292969 5.519531 C 1.476562 5.261719 1.6875 5.03125 1.933594 4.828125 C 2.175781 4.628906 2.46875 4.4375 2.8125 4.257812 C 3.160156 4.074219 3.546875 3.925781 3.976562 3.804688 C 4.40625 3.683594 4.902344 3.585938 5.464844 3.519531 C 6.027344 3.449219 6.640625 3.414062 7.296875 3.414062 L 8.792969 3.414062 L 8.792969 1.625 C 8.792969 1.363281 8.914062 1.179688 9.15625 1.074219 C 9.238281 1.042969 9.316406 1.027344 9.390625 1.027344 C 9.550781 1.027344 9.691406 1.085938 9.808594 1.203125 L 13.394531 4.789062 C 13.511719 4.90625 13.570312 5.046875 13.570312 5.207031 C 13.570312 5.371094 13.511719 5.511719 13.394531 5.628906 Z M 13.394531 5.628906 "/>
</g>
</svg>
