<?xml version="1.0" encoding="UTF-8"?>
<svg xmlns="http://www.w3.org/2000/svg" xmlns:xlink="http://www.w3.org/1999/xlink" width="14pt" height="14pt" viewBox="0 0 14 14" version="1.1">
<g id="surface1">
<path style=" stroke:none;fill-rule:nonzero;fill:rgb(0%,0%,0%);fill-opacity:1;" d="M 4.011719 9.988281 L 4.011719 11.179688 L 2.820312 11.179688 L 2.820312 9.988281 Z M 4.011719 2.820312 L 4.011719 4.011719 L 2.820312 4.011719 L 2.820312 2.820312 Z M 11.179688 2.820312 L 11.179688 4.011719 L 9.988281 4.011719 L 9.988281 2.820312 Z M 1.625 12.367188 L 5.207031 12.367188 L 5.207031 8.792969 L 1.625 8.792969 Z M 1.625 5.207031 L 5.207031 5.207031 L 5.207031 1.625 L 1.625 1.625 Z M 8.792969 5.207031 L 12.375 5.207031 L 12.375 1.625 L 8.792969 1.625 Z M 6.402344 7.597656 L 6.402344 13.570312 L 0.429688 13.570312 L 0.429688 7.597656 Z M 11.179688 12.375 L 11.179688 13.570312 L 9.988281 13.570312 L 9.988281 12.375 Z M 13.570312 12.375 L 13.570312 13.570312 L 12.375 13.570312 L 12.375 12.375 Z M 13.570312 7.597656 L 13.570312 11.179688 L 9.988281 11.179688 L 9.988281 9.988281 L 8.792969 9.988281 L 8.792969 13.570312 L 7.597656 13.570312 L 7.597656 7.597656 L 11.179688 7.597656 L 11.179688 8.792969 L 12.375 8.792969 L 12.375 7.597656 Z M 6.402344 0.429688 L 6.402344 6.402344 L 0.429688 6.402344 L 0.429688 0.429688 Z M 13.570312 0.429688 L 13.570312 6.402344 L 7.597656 6.402344 L 7.597656 0.429688 Z M 13.570312 0.429688 "/>
</g>
</svg>
