<?xml version="1.0" encoding="UTF-8"?>
<svg xmlns="http://www.w3.org/2000/svg" xmlns:xlink="http://www.w3.org/1999/xlink" width="14pt" height="14pt" viewBox="0 0 14 14" version="1.1">
<g id="surface1">
<path style=" stroke:none;fill-rule:nonzero;fill:rgb(0%,0%,0%);fill-opacity:1;" d="M 13.855469 6.019531 C 13.855469 6.90625 13.550781 7.726562 12.9375 8.480469 C 12.324219 9.230469 11.496094 9.828125 10.445312 10.261719 C 9.390625 10.699219 8.246094 10.917969 7 10.917969 C 6.644531 10.917969 6.273438 10.894531 5.890625 10.855469 C 4.878906 11.75 3.707031 12.367188 2.371094 12.707031 C 2.121094 12.777344 1.828125 12.835938 1.5 12.875 C 1.410156 12.886719 1.332031 12.863281 1.265625 12.808594 C 1.195312 12.75 1.152344 12.675781 1.128906 12.585938 L 1.128906 12.578125 C 1.117188 12.558594 1.113281 12.527344 1.128906 12.484375 C 1.140625 12.445312 1.144531 12.417969 1.140625 12.410156 C 1.140625 12.398438 1.152344 12.375 1.175781 12.335938 L 1.222656 12.265625 C 1.222656 12.265625 1.242188 12.246094 1.277344 12.203125 C 1.3125 12.160156 1.332031 12.136719 1.335938 12.132812 C 1.375 12.09375 1.453125 12.003906 1.574219 11.871094 C 1.695312 11.734375 1.785156 11.636719 1.839844 11.578125 C 1.890625 11.519531 1.972656 11.417969 2.074219 11.277344 C 2.179688 11.132812 2.261719 11.003906 2.324219 10.886719 C 2.386719 10.769531 2.453125 10.617188 2.53125 10.433594 C 2.609375 10.25 2.675781 10.058594 2.730469 9.851562 C 1.929688 9.398438 1.296875 8.835938 0.835938 8.167969 C 0.375 7.5 0.144531 6.785156 0.144531 6.019531 C 0.144531 5.355469 0.324219 4.722656 0.6875 4.117188 C 1.050781 3.511719 1.535156 2.992188 2.148438 2.554688 C 2.761719 2.113281 3.492188 1.765625 4.335938 1.507812 C 5.183594 1.25 6.070312 1.121094 7 1.121094 C 8.246094 1.121094 9.390625 1.339844 10.445312 1.777344 C 11.496094 2.210938 12.324219 2.808594 12.9375 3.558594 C 13.550781 4.3125 13.855469 5.132812 13.855469 6.019531 Z M 13.855469 6.019531 "/>
</g>
</svg>
