<?xml version="1.0" encoding="UTF-8"?>
<svg xmlns="http://www.w3.org/2000/svg" xmlns:xlink="http://www.w3.org/1999/xlink" width="14pt" height="14pt" viewBox="0 0 14 14" version="1.1">
<g id="surface1">
<path style=" stroke:none;fill-rule:nonzero;fill:rgb(0%,0%,0%);fill-opacity:1;" d="M 2.804688 11.195312 C 2.804688 11.050781 2.753906 10.929688 2.648438 10.824219 C 2.546875 10.722656 2.421875 10.671875 2.28125 10.671875 C 2.140625 10.671875 2.015625 10.722656 1.914062 10.824219 C 1.808594 10.929688 1.757812 11.050781 1.757812 11.195312 C 1.757812 11.335938 1.808594 11.460938 1.914062 11.5625 C 2.015625 11.667969 2.140625 11.71875 2.28125 11.71875 C 2.421875 11.71875 2.546875 11.667969 2.648438 11.5625 C 2.753906 11.460938 2.804688 11.335938 2.804688 11.195312 Z M 12.242188 6.476562 C 12.242188 6.195312 12.136719 5.953125 11.921875 5.742188 C 11.710938 5.53125 11.46875 5.425781 11.195312 5.425781 L 8.3125 5.425781 C 8.3125 5.109375 8.441406 4.675781 8.703125 4.121094 C 8.964844 3.566406 9.097656 3.128906 9.097656 2.804688 C 9.097656 2.269531 9.011719 1.875 8.835938 1.617188 C 8.660156 1.359375 8.3125 1.234375 7.785156 1.234375 C 7.644531 1.375 7.539062 1.605469 7.476562 1.929688 C 7.410156 2.25 7.328125 2.59375 7.226562 2.957031 C 7.125 3.320312 6.960938 3.621094 6.738281 3.855469 C 6.617188 3.980469 6.40625 4.226562 6.105469 4.597656 C 6.085938 4.625 6.023438 4.707031 5.917969 4.84375 C 5.816406 4.980469 5.730469 5.09375 5.660156 5.179688 C 5.59375 5.269531 5.496094 5.382812 5.378906 5.53125 C 5.257812 5.675781 5.148438 5.792969 5.050781 5.890625 C 4.953125 5.984375 4.847656 6.082031 4.734375 6.179688 C 4.621094 6.277344 4.511719 6.351562 4.40625 6.402344 C 4.300781 6.449219 4.203125 6.476562 4.117188 6.476562 L 3.855469 6.476562 L 3.855469 11.71875 L 4.117188 11.71875 C 4.1875 11.71875 4.273438 11.726562 4.375 11.742188 C 4.476562 11.761719 4.566406 11.777344 4.644531 11.796875 C 4.722656 11.816406 4.828125 11.847656 4.957031 11.886719 C 5.085938 11.929688 5.179688 11.960938 5.242188 11.980469 C 5.304688 12.003906 5.402344 12.035156 5.535156 12.082031 C 5.664062 12.128906 5.742188 12.160156 5.769531 12.167969 C 6.921875 12.566406 7.859375 12.765625 8.574219 12.765625 L 9.5625 12.765625 C 10.613281 12.765625 11.136719 12.3125 11.136719 11.398438 C 11.136719 11.257812 11.125 11.105469 11.097656 10.941406 C 11.261719 10.851562 11.390625 10.710938 11.484375 10.511719 C 11.582031 10.3125 11.628906 10.109375 11.628906 9.910156 C 11.628906 9.707031 11.578125 9.519531 11.480469 9.34375 C 11.769531 9.070312 11.914062 8.746094 11.914062 8.367188 C 11.914062 8.230469 11.886719 8.078125 11.832031 7.914062 C 11.777344 7.746094 11.710938 7.617188 11.628906 7.523438 C 11.804688 7.519531 11.949219 7.390625 12.066406 7.140625 C 12.183594 6.886719 12.242188 6.667969 12.242188 6.476562 Z M 13.292969 6.46875 C 13.292969 6.953125 13.15625 7.398438 12.890625 7.804688 C 12.941406 7.984375 12.964844 8.171875 12.964844 8.367188 C 12.964844 8.789062 12.859375 9.183594 12.652344 9.546875 C 12.667969 9.664062 12.675781 9.78125 12.675781 9.898438 C 12.675781 10.453125 12.511719 10.9375 12.1875 11.359375 C 12.191406 12.117188 11.960938 12.71875 11.488281 13.15625 C 11.019531 13.597656 10.398438 13.816406 9.628906 13.816406 L 8.574219 13.816406 C 8.046875 13.816406 7.53125 13.753906 7.019531 13.632812 C 6.511719 13.507812 5.917969 13.332031 5.246094 13.09375 C 4.613281 12.875 4.238281 12.765625 4.117188 12.765625 L 1.757812 12.765625 C 1.46875 12.765625 1.21875 12.664062 1.015625 12.460938 C 0.8125 12.253906 0.707031 12.007812 0.707031 11.71875 L 0.707031 6.476562 C 0.707031 6.1875 0.8125 5.9375 1.015625 5.734375 C 1.21875 5.53125 1.46875 5.425781 1.757812 5.425781 L 4 5.425781 C 4.199219 5.296875 4.574219 4.871094 5.125 4.15625 C 5.441406 3.746094 5.734375 3.398438 6 3.109375 C 6.132812 2.972656 6.230469 2.738281 6.292969 2.40625 C 6.355469 2.078125 6.4375 1.730469 6.542969 1.371094 C 6.644531 1.011719 6.8125 0.714844 7.050781 0.488281 C 7.261719 0.285156 7.507812 0.183594 7.785156 0.183594 C 8.246094 0.183594 8.65625 0.273438 9.023438 0.449219 C 9.390625 0.628906 9.667969 0.90625 9.859375 1.28125 C 10.050781 1.660156 10.144531 2.167969 10.144531 2.804688 C 10.144531 3.3125 10.015625 3.835938 9.753906 4.378906 L 11.195312 4.378906 C 11.761719 4.378906 12.253906 4.585938 12.667969 5 C 13.085938 5.417969 13.292969 5.90625 13.292969 6.46875 Z M 13.292969 6.46875 "/>
</g>
</svg>
