<?xml version="1.0" encoding="UTF-8"?>
<svg xmlns="http://www.w3.org/2000/svg" xmlns:xlink="http://www.w3.org/1999/xlink" width="14pt" height="14pt" viewBox="0 0 14 14" version="1.1">
<g id="surface1">
<path style=" stroke:none;fill-rule:nonzero;fill:rgb(0%,0%,0%);fill-opacity:1;" d="M 9.304688 7.230469 C 9.304688 7.164062 9.285156 7.109375 9.242188 7.066406 L 6.703125 4.527344 C 6.660156 4.484375 6.605469 4.464844 6.539062 4.464844 C 6.472656 4.464844 6.417969 4.484375 6.375 4.527344 L 3.84375 7.058594 C 3.796875 7.117188 3.773438 7.171875 3.773438 7.230469 C 3.773438 7.296875 3.792969 7.351562 3.835938 7.394531 C 3.878906 7.441406 3.933594 7.460938 4.003906 7.460938 L 5.617188 7.460938 L 5.617188 9.996094 C 5.617188 10.058594 5.640625 10.113281 5.683594 10.160156 C 5.730469 10.207031 5.785156 10.226562 5.847656 10.226562 L 7.230469 10.226562 C 7.292969 10.226562 7.347656 10.207031 7.394531 10.160156 C 7.4375 10.113281 7.460938 10.058594 7.460938 9.996094 L 7.460938 7.460938 L 9.074219 7.460938 C 9.136719 7.460938 9.191406 7.4375 9.238281 7.394531 C 9.28125 7.347656 9.304688 7.292969 9.304688 7.230469 Z M 13.917969 9.304688 C 13.917969 10.070312 13.648438 10.722656 13.105469 11.261719 C 12.566406 11.800781 11.914062 12.074219 11.152344 12.074219 L 3.3125 12.074219 C 2.421875 12.074219 1.660156 11.757812 1.03125 11.125 C 0.398438 10.492188 0.0820312 9.734375 0.0820312 8.84375 C 0.0820312 8.21875 0.25 7.644531 0.585938 7.117188 C 0.921875 6.585938 1.375 6.191406 1.941406 5.925781 C 1.933594 5.78125 1.925781 5.679688 1.925781 5.617188 C 1.925781 4.597656 2.289062 3.730469 3.007812 3.007812 C 3.730469 2.289062 4.597656 1.925781 5.617188 1.925781 C 6.367188 1.925781 7.050781 2.136719 7.671875 2.554688 C 8.296875 2.972656 8.75 3.527344 9.03125 4.21875 C 9.375 3.921875 9.773438 3.773438 10.226562 3.773438 C 10.738281 3.773438 11.171875 3.953125 11.53125 4.3125 C 11.894531 4.671875 12.074219 5.105469 12.074219 5.617188 C 12.074219 5.980469 11.972656 6.3125 11.777344 6.609375 C 12.402344 6.761719 12.914062 7.085938 13.316406 7.585938 C 13.71875 8.089844 13.917969 8.660156 13.917969 9.304688 Z M 13.917969 9.304688 "/>
</g>
</svg>
