<?xml version="1.0" encoding="UTF-8"?>
<svg xmlns="http://www.w3.org/2000/svg" xmlns:xlink="http://www.w3.org/1999/xlink" width="14pt" height="14pt" viewBox="0 0 14 14" version="1.1">
<g id="surface1">
<path style=" stroke:none;fill-rule:nonzero;fill:rgb(0%,0%,0%);fill-opacity:1;" d="M 4.203125 3.046875 C 4.203125 2.726562 4.089844 2.453125 3.863281 2.226562 C 3.636719 2 3.363281 1.886719 3.046875 1.886719 C 2.726562 1.886719 2.453125 2 2.226562 2.226562 C 2 2.453125 1.886719 2.726562 1.886719 3.046875 C 1.886719 3.363281 2 3.636719 2.226562 3.863281 C 2.453125 4.089844 2.726562 4.203125 3.046875 4.203125 C 3.363281 4.203125 3.636719 4.089844 3.863281 3.863281 C 4.089844 3.636719 4.203125 3.363281 4.203125 3.046875 Z M 13.847656 8.253906 C 13.847656 8.570312 13.734375 8.84375 13.511719 9.066406 L 9.074219 13.511719 C 8.839844 13.734375 8.566406 13.847656 8.253906 13.847656 C 7.933594 13.847656 7.660156 13.734375 7.4375 13.511719 L 0.976562 7.039062 C 0.746094 6.816406 0.550781 6.511719 0.390625 6.128906 C 0.230469 5.742188 0.152344 5.390625 0.152344 5.070312 L 0.152344 1.308594 C 0.152344 0.996094 0.265625 0.726562 0.496094 0.496094 C 0.726562 0.265625 0.996094 0.152344 1.308594 0.152344 L 5.070312 0.152344 C 5.390625 0.152344 5.742188 0.230469 6.128906 0.390625 C 6.511719 0.550781 6.820312 0.746094 7.050781 0.976562 L 13.511719 7.429688 C 13.734375 7.664062 13.847656 7.9375 13.847656 8.253906 Z M 13.847656 8.253906 "/>
</g>
</svg>
